PathFileType	4	(X/Y/Z)	24_1_48_p1_0-355.trc
DataRate	CameraRate	NumFrames	NumMarkers	Units	OrigDataRate	OrigDataStartFrame	OrigNumFrames
59.0	59.0	7	27	m	59.0	267	356
Frame#	Time	RHip			RKnee			RAnkle			RBigToe			RSmallToe			RHeel			LHip			LKnee			LAnkle			LBigToe			LSmallToe			LHeel			Neck			Head			Nose			RShoulder			RElbow			RWrist			RThumb			RIndex			RPinky			LShoulder			LElbow			LWrist			LThumb			LIndex			LPinky			
		X1	Y1	Z1	X2	Y2	Z2	X3	Y3	Z3	X4	Y4	Z4	X5	Y5	Z5	X6	Y6	Z6	X7	Y7	Z7	X8	Y8	Z8	X9	Y9	Z9	X10	Y10	Z10	X11	Y11	Z11	X12	Y12	Z12	X13	Y13	Z13	X14	Y14	Z14	X15	Y15	Z15	X16	Y16	Z16	X17	Y17	Z17	X18	Y18	Z18	X19	Y19	Z19	X20	Y20	Z20	X21	Y21	Z21	X22	Y22	Z22	X23	Y23	Z23	X24	Y24	Z24	X25	Y25	Z25	X26	Y26	Z26	X27	Y27	Z27	
267	4.52542372881356	0.43258368400009467	0.5251715704039512	0.8181016578310024	0.4139834123071722	0.49921540625871513	1.2719873105200987	0.40558919169083907	0.5868345196850496	1.680145915005677	0.41632887144432384	0.5398960097665285	1.7380886852898174	0.46752669191568674	0.559055297777831	1.7312077042872764	0.3984171208799802	0.6031207744233176	1.6997579500086202	0.23320797926216824	0.5067171293639633	0.8172561336006985	0.21229166017918216	0.526389140715285	1.2762645423785186	0.20514336086299523	0.616388410424292	1.6931896332117597	0.24962062944211882	0.5198169805771958	1.7291882248205586	0.18326049065931158	0.5247776374940217	1.7243436245945576	0.21542569158367084	0.6385537835260938	1.731106447415608	0.3052888661398229	0.4238486753570733	0.2739878728886469	0.3076341022864613	0.3745217886708252	0.05322106818060718	0.30916711868679414	0.2868887537272763	0.14887812621589985	0.4646956355803045	0.41613655867284327	0.3414858639465189	0.5506643315202452	0.46423016113123106	0.5831357499482087	0.4367737584071853	0.34156312045854137	0.7525236844630974	0.33377290805922677	0.3137242455747535	0.8166939519828423	0.3463575770242028	0.28819708329972404	0.8381076757658925	0.38151076522330307	0.30965475859198827	0.8476505075950698	0.17092447567239055	0.41868953170258183	0.33537422398146893	0.08056623559912571	0.5153616440708483	0.5559574799630788	0.20454433125986987	0.35901125258754246	0.6612766062414823	0.30014602781805855	0.25703397536615635	0.6586130049247386	0.29980933399073334	0.24677721276957149	0.6714936988382968	0.2598381091822229	0.2912681846871653	0.7221822203728415
268	4.5423728813559325	0.4336093374680263	0.5297621286107369	0.835266348801699	0.41456222863149533	0.5018290246947981	1.2765456735634135	0.4055704141433846	0.5868966689430746	1.6801611746735223	0.4162535594245761	0.5400762841678978	1.7381740636622525	0.46848334253624274	0.5582466106383609	1.727022786771746	0.3990812835572392	0.6058857960679683	1.7051244799893575	0.22932000403921105	0.5071285799606362	0.8225172207710926	0.2127613762386625	0.5291737832987712	1.2810189164446535	0.20519469236193077	0.6163913848159525	1.6932118233990323	0.2479203820716496	0.5084456514571883	1.7237985554327597	0.18391644456978498	0.5235717039638917	1.7283386551119908	0.21538663686518328	0.6387015780137119	1.730996592355155	0.3088302023213145	0.3983335352425041	0.2740600674744637	0.3001974231881356	0.3489234326916652	0.05548442834152369	0.30765607354326285	0.277354236279471	0.15291971178945338	0.4618539810189076	0.4026289360522923	0.3379872120974648	0.5507529422619319	0.4639521632156127	0.5831794717426911	0.4406921968168692	0.3431504635031396	0.7533322137115128	0.341229095621648	0.3148846647500855	0.8167205652680851	0.35784866848003816	0.2896039247882402	0.8372839046608638	0.38182769785775456	0.3105827922912743	0.848268105043395	0.16955497220184185	0.40745933498460724	0.34598998685636445	0.07965913527134508	0.5041438431793872	0.5550439117206909	0.1950901989443926	0.36857614706703756	0.6666248981168404	0.29496350996824355	0.26743902545115766	0.6605317839686965	0.29948022884596953	0.2468497731899015	0.6755801101038759	0.25062001994551414	0.3026628521936214	0.7291006536653373
269	4.559322033898305	0.4376720534295566	0.5296810293131119	0.8309046660307983	0.41344187439736646	0.5007521759455918	1.2685357694172141	0.405572180556365	0.5868971053854843	1.6801525834621027	0.4155349485023574	0.5415193684220969	1.7342448243556974	0.46542693640145905	0.5430328351716633	1.7195314939729345	0.39842252095381153	0.6034513534735346	1.7000955583547341	0.2274021819495323	0.5205245031280504	0.8204555305517761	0.21229925824159793	0.5269641472766932	1.2757391944002219	0.205210522204296	0.6164921274441918	1.6931762658446807	0.24991362637862835	0.5211312254057053	1.729992046104523	0.18552088274169418	0.5360786657057627	1.734207233072035	0.21535793369150447	0.6389277573136646	1.7310452342213551	0.3072645381103652	0.38551560044995103	0.2777617784387513	0.303837321819366	0.3251581555936863	0.060539975791951604	0.3077677982484983	0.276566240223885	0.15617976917875742	0.4617985921956529	0.4022381939875506	0.33801206844004494	0.5550341831836293	0.45080571199086805	0.5848864029863913	0.4409662340322289	0.3455618138981125	0.7615117305566094	0.3421109523488045	0.3147941049709655	0.8206431515030979	0.36233843758222367	0.29052051971538817	0.837121119827729	0.3919775439451598	0.30053205737970623	0.8499696687185306	0.16967897177733726	0.4073544522912892	0.34600827516688853	0.08041866995237958	0.5155826339099695	0.555990525271802	0.19537913562706888	0.3672794031597277	0.6700355963455876	0.29804412927496493	0.24618143993179417	0.6717128399539666	0.29785670821164606	0.23895765357002277	0.6860448850261499	0.24233544131543733	0.3020000125569563	0.7393136189620232
270	4.576271186440678	0.4394337089440653	0.5321191287111684	0.8334876258702617	0.4147899004638711	0.502683916217016	1.2685356630777418	0.40557166012170154	0.5870659577842302	1.6800118512977673	0.41542680985644004	0.5411990260694352	1.733550699034861	0.46079304916117003	0.5439836132760163	1.7160361598978482	0.39916653294295673	0.60629859267265	1.7046728730817098	0.2335957806865484	0.5262010993225124	0.8223993840946662	0.213588076625155	0.533016135815581	1.2774576899836703	0.2051773853095058	0.6165305991939134	1.6932113046465118	0.2477767141757829	0.5076881407094775	1.723451443924001	0.18632668471642103	0.529829211932584	1.7312748767527355	0.21525024688589522	0.6391286503405127	1.730869517336118	0.30341078444806485	0.38226770303681445	0.278323943867684	0.2983902921074317	0.3128835688553276	0.06515434490049409	0.3078227709379401	0.27581791971484126	0.1630036722997431	0.4617600930569587	0.404188241783649	0.3451305610181469	0.5505257149281481	0.46418466634577527	0.5867081862215904	0.4474117933817099	0.35859875315482337	0.7637106097257935	0.34698300194100895	0.3136472867318241	0.8327663738460587	0.3655804697308203	0.30380837245559844	0.8397469393067495	0.38792554484562214	0.3143611671279713	0.8536686082241379	0.16434948579769862	0.3927258801749718	0.34616417761899443	0.08052392123621746	0.516971738281913	0.5593855590785353	0.18895776953019439	0.3794915997346401	0.6722256227209279	0.28572037923746046	0.25656252209976255	0.6818366677182114	0.28572346566449175	0.2344845291129958	0.7006691461454415	0.23954765928871408	0.30025644786510836	0.742650491479352
271	4.593220338983051	0.4543057856619165	0.5137993559533156	0.8148466611605065	0.4148009148508855	0.502809166313261	1.2680907890604571	0.4055315699475984	0.5870451355319689	1.6792795683128174	0.4097080827087537	0.555309192044298	1.741415407133874	0.45508255453181923	0.5584544185431617	1.724157505031258	0.39846430067111177	0.6033681096169015	1.6979349324302757	0.2350100332057662	0.5280460730203567	0.819057165031557	0.21409147779258383	0.5300737806596066	1.2682657040879621	0.20459865469761002	0.6183369946495522	1.6898302887487737	0.24835075639933477	0.5214097264411139	1.7349810334687783	0.18420164382669413	0.5410323983878949	1.7405844812267373	0.2184028149428655	0.6525137416177033	1.7320842059392976	0.2994731888770155	0.3600748066251748	0.2854332689826171	0.3015674429157664	0.29023954514995987	0.0700578026144846	0.30240863639282456	0.2629035359664207	0.1706106925429784	0.4616582325223158	0.4037769580370756	0.3456672372348062	0.5549789280845079	0.45034257369351305	0.5850705387812892	0.44819156883483197	0.3605266462939353	0.7679781603587784	0.3475176271046051	0.31536502406940997	0.837717242460197	0.3745871171348755	0.29385638552626353	0.8405511554746805	0.39542603984489366	0.31615605982264444	0.860280268637058	0.15705280783908557	0.3884015635070759	0.35340890932352026	0.08047148708115583	0.516747871759113	0.5597107908861491	0.19007184519731937	0.3557008926237524	0.680587435205912	0.27728592582310047	0.2568816091527247	0.703993207170506	0.2787628348964106	0.23218516649011223	0.7122776848443562	0.23467496089793122	0.30856659127193614	0.751681998169078
272	4.610169491525424	0.4496179004712757	0.5298311897096435	0.8220396252372879	0.41480513810163727	0.50293532639369	1.2682111267543457	0.4041191193543793	0.586198842101702	1.6701049497062228	0.4092004481301232	0.5573505282906858	1.7384826545971868	0.45356373108835624	0.5615794997084305	1.7255669008254466	0.39786616653333856	0.6046353607943918	1.693824745678273	0.23581007152989747	0.5298965782600049	0.8203136007178323	0.2086894779310321	0.5557595470539826	1.2721914953278144	0.20453338062287993	0.6182258228918497	1.6897411719978868	0.24747390989796608	0.5210241888014834	1.7345515637928033	0.18332504773883726	0.5381282603258034	1.7353502752889942	0.2182991737961533	0.6524040656923129	1.731723329920556	0.30476062777139074	0.3473039507039971	0.28543523791327036	0.29779444408084144	0.28820506127708484	0.07034702973020035	0.300727246044883	0.2509376576771123	0.17789223927075687	0.4613064536668492	0.4037170308723878	0.34907724798238604	0.554951376615312	0.45049027728773605	0.5851281601896369	0.4524141443065214	0.36299015520715244	0.7683783523273954	0.3510051347365903	0.31582425566663147	0.8378226453129042	0.37493866522392627	0.29444754006621804	0.841259316084302	0.39574783824799775	0.31761839398964015	0.8607262805082668	0.1553063404344126	0.37673492009479204	0.35680601619486363	0.08051476272094289	0.5182726720903776	0.5623920910495216	0.1839926605272458	0.36623042874700884	0.6896410739461013	0.2731275978451757	0.25521305662154914	0.7040118785796381	0.27318338631248024	0.24233904825657648	0.7210827644367293	0.23508288884795994	0.30949664482676137	0.7633624339314531
273	4.627118644067797	0.4410259858470974	0.5457225540084556	0.8312806440669245	0.4102707759079215	0.5287811334537008	1.2778518783092632	0.4124719913448757	0.5850235275291502	1.66874859403384	0.4092847371631673	0.5572182042513923	1.7379750708220554	0.45477299339014376	0.5601608058301017	1.7207893245133243	0.3979895365958379	0.6045404033328025	1.6935534355068282	0.22846642887025673	0.5444809492916817	0.8307066068742126	0.20578528514739847	0.5603118544634562	1.2726788743665454	0.2039252364804575	0.6195841700309713	1.6861512661238593	0.2474005846075424	0.5231681737220145	1.7355332730737123	0.1833275549962741	0.5386966843530074	1.7356210074982013	0.2169909762651122	0.6510130708036063	1.7222850358935144	0.3030853057111644	0.335706577556196	0.28920794417155543	0.29618433406888894	0.2768275399792699	0.07482476040134001	0.30402050834239563	0.22926763853122423	0.18227437002907937	0.45698777154659326	0.4025945127953636	0.35263346190841743	0.5522729190249527	0.4387349591191101	0.5841724769600771	0.4527379430070843	0.3634109023218519	0.768806793924008	0.3512650734298025	0.3157402074161241	0.8375899172717578	0.377329316722185	0.306921407792802	0.8475487148818375	0.40030515054068905	0.32091410314134367	0.8615062692443369	0.1556183753127318	0.3758786085033008	0.36019295100860566	0.08068449447632411	0.5161086016839384	0.5641444055806264	0.17578086991798186	0.36452659843806057	0.6903891620798327	0.2725921699361242	0.25527223376306246	0.7107637646040726	0.2735060955226173	0.24090642845430343	0.7276385383868322	0.23516396427645428	0.30975215359863545	0.7644524632100592
